<svg xmlns="http://www.w3.org/2000/svg" width="23" height="23" viewBox="0 0 23 23">
  <path id="패스_104" data-name="패스 104" d="M20.592,33.637c-2.6-2.494-6.608-2.12-9.092.77-2.484-2.89-6.5-3.269-9.092-.77A8.538,8.538,0,0,0,1.932,44.99l7.879,9.172a2.16,2.16,0,0,0,3.378.005L21.068,45A8.545,8.545,0,0,0,20.592,33.637Zm-1.06,9.623-7.879,9.172c-.108.123-.2.123-.305,0L3.468,43.261A5.82,5.82,0,0,1,3.8,35.526a4.154,4.154,0,0,1,6.132.539L11.5,37.9l1.572-1.832a4.151,4.151,0,0,1,6.132-.544,5.847,5.847,0,0,1,.328,7.74Z" transform="translate(0 -31.978)"/>
</svg>
