<svg xmlns="http://www.w3.org/2000/svg" width="23" height="23" viewBox="0 0 23 23">
  <g id="그룹_96" data-name="그룹 96" transform="translate(111.202 291.917)">
    <path id="패스_174" data-name="패스 174" d="M-84.161-290.975a9.952,9.952,0,0,0,3.139-.442s.006,3.623-3.139,3.623h.064c-3.146,0-3.139-3.623-3.139-3.623a9.953,9.953,0,0,0,3.139.442Z" transform="translate(-15.548)" fill="#fff" stroke="#000" stroke-linejoin="round" stroke-width="1"/>
    <path id="패스_175" data-name="패스 175" d="M-93.45-287.794c3.145,0,3.139-3.623,3.139-3.623h0l4.53,1.348s-2.972,6.8,0,7.658l-.179,12.994h-15.365l.179-12.994c2.972-.859,0-7.658,0-7.658l4.53-1.348h0s-.006,3.623,3.139,3.623Z" transform="translate(-6.213)" fill="#fff" stroke="#000" stroke-linejoin="round" stroke-width="1"/>
    <path id="패스_176" data-name="패스 176" d="M-59.694-278.794c-.727-3.506,1.348-8.59,1.348-8.59s1.8,1.662,2.673,8.475a74.432,74.432,0,0,1,.664,7.85l-3.937.469Z" transform="translate(-33.693 -2.672)" fill="#fff" stroke="#000" stroke-linejoin="round" stroke-width="1"/>
    <path id="패스_177" data-name="패스 177" d="M-106.017-278.794c.727-3.506-1.348-8.59-1.348-8.59s-1.8,1.662-2.673,8.475a74.428,74.428,0,0,0-.664,7.85l3.937.469Z" transform="translate(0 -2.672)" fill="#fff" stroke="#000" stroke-linejoin="round" stroke-width="1"/>
  </g>
</svg>
