<svg xmlns="http://www.w3.org/2000/svg" width="23" height="23" viewBox="0 0 23 23">
  <g id="그룹_87" data-name="그룹 87" transform="translate(1664 -760.394)">
    <path id="패스_153" data-name="패스 153" d="M-255.864,718.909a6.4,6.4,0,0,1-6.408,6.4,6.4,6.4,0,0,1-6.408-6.4,6.4,6.4,0,0,1,6.408-6.4A6.4,6.4,0,0,1-255.864,718.909Zm-6.407-4.4a4.406,4.406,0,0,0-4.409,4.4,4.405,4.405,0,0,0,4.409,4.4,4.406,4.406,0,0,0,4.41-4.4A4.406,4.406,0,0,0-262.271,714.507Z" transform="translate(-1390.412 47.881)"/>
    <path id="패스_154" data-name="패스 154" d="M-288,780.627c-2.431,0-2.246-1.773-2.246-1.773v-2.562c1.1-5.863,7.285-5.362,7.285-5.362a10.7,10.7,0,0,0,4.211.806,10.7,10.7,0,0,0,4.211-.806s6.184-.5,7.286,5.362v2.562s.185,1.773-2.246,1.773H-288Zm9.067-1.795h6.569c2.874,0,2.651-1.509,2.651-1.509v-.459c-.782-4.163-5.361-3.945-5.361-3.945a11.335,11.335,0,0,1-3.858.572h0a11.334,11.334,0,0,1-3.858-.572s-4.579-.218-5.361,3.945v.459s-.223,1.509,2.65,1.509h6.569Z" transform="translate(-1373.753 2.768)"/>
  </g>
</svg>
