<svg xmlns="http://www.w3.org/2000/svg" width="21.81" height="21.504" viewBox="0 0 21.81 21.504">
  <path id="패스_49" data-name="패스 49" d="M137.017-27.569a6.41,6.41,0,0,1-6.414-6.414,6.41,6.41,0,0,1,6.414-6.414,6.41,6.41,0,0,1,6.414,6.414A6.41,6.41,0,0,1,137.017-27.569Zm4.947-.113,7.554,7.186,1.291-1.346-7.554-7.186a8.112,8.112,0,0,0,1.779-4.956A8.016,8.016,0,0,0,137.017-42,8.016,8.016,0,0,0,129-33.983a8.016,8.016,0,0,0,8.017,8.017A8.034,8.034,0,0,0,141.965-27.682Z" transform="translate(-129 42)"/>
</svg>
