<svg xmlns="http://www.w3.org/2000/svg" width="42.5" height="37.188" viewBox="0 0 42.5 37.188">
  <path id="패스_95" data-name="패스 95" d="M42.5,41.3V65.2a3.985,3.985,0,0,1-3.984,3.984H3.984A3.985,3.985,0,0,1,0,65.2V41.3a3.985,3.985,0,0,1,3.984-3.984h7.3l1.021-2.731A3.979,3.979,0,0,1,16.037,32H26.455a3.979,3.979,0,0,1,3.727,2.582l1.029,2.731h7.3A3.985,3.985,0,0,1,42.5,41.3ZM31.211,53.25a9.961,9.961,0,1,0-9.961,9.961A9.969,9.969,0,0,0,31.211,53.25Zm-2.656,0a7.3,7.3,0,1,1-7.3-7.3A7.315,7.315,0,0,1,28.555,53.25Z" transform="translate(0 -32)"/>
</svg>
