<svg xmlns="http://www.w3.org/2000/svg" width="27.833" height="24.354" viewBox="0 0 27.833 24.354">
  <path id="패스_3" data-name="패스 3" d="M1529.249-1812.612h25.845a.994.994,0,0,0,.994-.994v-2.485a.994.994,0,0,0-.994-.994h-25.845a.994.994,0,0,0-.994.994v2.485A.994.994,0,0,0,1529.249-1812.612Zm0,9.941h25.845a.994.994,0,0,0,.994-.994v-2.485a.994.994,0,0,0-.994-.994h-25.845a.994.994,0,0,0-.994.994v2.485A.994.994,0,0,0,1529.249-1802.671Zm0,9.94h25.845a.994.994,0,0,0,.994-.994v-2.485a.994.994,0,0,0-.994-.994h-25.845a.994.994,0,0,0-.994.994v2.485A.994.994,0,0,0,1529.249-1792.73Z" transform="translate(-1528.255 1817.085)"/>
</svg>
