<svg xmlns="http://www.w3.org/2000/svg" width="44.1" height="34.3" viewBox="0 0 44.1 34.3">
  <path id="패스_94" data-name="패스 94" d="M36.75,61.4v1.225A3.675,3.675,0,0,1,33.075,66.3H3.675A3.675,3.675,0,0,1,0,62.625v-19.6A3.675,3.675,0,0,1,3.675,39.35H4.9v3.675H4.134a.459.459,0,0,0-.459.459V62.166a.459.459,0,0,0,.459.459H32.616a.459.459,0,0,0,.459-.459V61.4Zm3.216-25.725H11.484a.459.459,0,0,0-.459.459V54.816a.459.459,0,0,0,.459.459H39.966a.459.459,0,0,0,.459-.459V36.134A.459.459,0,0,0,39.966,35.675ZM40.425,32A3.675,3.675,0,0,1,44.1,35.675v19.6a3.675,3.675,0,0,1-3.675,3.675h-29.4A3.675,3.675,0,0,1,7.35,55.275v-19.6A3.675,3.675,0,0,1,11.025,32ZM20.213,40.575a3.063,3.063,0,1,1-3.062-3.062A3.063,3.063,0,0,1,20.213,40.575ZM14.7,47.925,17.725,44.9a.919.919,0,0,1,1.3,0l3.025,3.025L29.975,40a.919.919,0,0,1,1.3,0l5.475,5.475V51.6H14.7Z" transform="translate(0 -32)"/>
</svg>
