<svg xmlns="http://www.w3.org/2000/svg" width="17.333" height="15.864" viewBox="0 0 17.333 15.864">
  <g id="그룹_7" data-name="그룹 7" transform="translate(-1303 507.417)">
    <path id="패스_26" data-name="패스 26" d="M3934.473-3841.859l-.625,2.935,3.55-2.241.145-.092a11.006,11.006,0,0,0,1.656.125c4.787,0,8.667-3.057,8.667-6.827s-3.88-6.828-8.667-6.828-8.667,3.057-8.667,6.828a6.643,6.643,0,0,0,4.013,5.761Z" transform="translate(-2627.532 3347.371)"/>
    <g id="그룹_6" data-name="그룹 6" transform="translate(1305.292 -502.505)">
      <path id="패스_22" data-name="패스 22" d="M3937.676-3839.16h2.8v.614h-2.8Zm1.082.319h.638v3.577h-.638Z" transform="translate(-3937.676 3839.16)" fill="#feec34"/>
      <path id="패스_23" data-name="패스 23" d="M3947.288-3839.16h.466l1.463,3.9h-.689l-1.007-2.9-1.007,2.9h-.689Zm-.774,2.542h2.05v.614h-2.05Z" transform="translate(-3943.157 3839.16)" fill="#feec34"/>
      <path id="패스_24" data-name="패스 24" d="M3957.82-3839.16h.64v3.9h-.64Zm.3,3.282h2.256v.613h-2.256Z" transform="translate(-3951.224 3839.16)" fill="#feec34"/>
      <path id="패스_25" data-name="패스 25" d="M3967.426-3839.16h.641v3.9h-.641Zm.437,2.28,1.64-2.28h.8l-2.433,3.167Zm.648-.41.531-.4,1.423,2.425h-.77Z" transform="translate(-3957.684 3839.16)" fill="#feec34"/>
    </g>
  </g>
</svg>
