<svg xmlns="http://www.w3.org/2000/svg" width="23" height="23" viewBox="0 0 23 23">
  <path id="패스_105" data-name="패스 105" d="M167.721,52.012V45.646a1.229,1.229,0,0,1,1.232-1.232h6.366a.618.618,0,0,1,.616.616v2.054a.618.618,0,0,1-.616.616h-4.312v4.313a.618.618,0,0,1-.616.616h-2.054A.618.618,0,0,1,167.721,52.012Zm14.786-6.982v2.054a.618.618,0,0,0,.616.616h4.312v4.313a.618.618,0,0,0,.616.616H190.1a.618.618,0,0,0,.616-.616V45.646a1.229,1.229,0,0,0-1.232-1.232h-6.366A.618.618,0,0,0,182.507,45.03Zm7.6,14.17h-2.054a.618.618,0,0,0-.616.616v4.313h-4.312a.618.618,0,0,0-.616.616V66.8a.618.618,0,0,0,.616.616h6.366a1.229,1.229,0,0,0,1.232-1.232V59.816A.618.618,0,0,0,190.1,59.2Zm-14.17,7.6V64.744a.618.618,0,0,0-.616-.616h-4.312V59.816a.618.618,0,0,0-.616-.616h-2.054a.618.618,0,0,0-.616.616v6.366a1.229,1.229,0,0,0,1.232,1.232h6.366A.618.618,0,0,0,175.935,66.8Z" transform="translate(-167.721 -44.414)"/>
  <path id="패스_106" data-name="패스 106" d="M296.244,189.913l-3.8-1.885a3.269,3.269,0,0,1-4.551,0l-3.8,1.885a.315.315,0,0,0-.141.42l1.117,2.236a.315.315,0,0,0,.42.141l1.105-.541a.312.312,0,0,1,.449.281V197.4a.624.624,0,0,0,.625.625h5a.624.624,0,0,0,.625-.625v-4.955a.313.313,0,0,1,.449-.281l1.105.541a.311.311,0,0,0,.42-.141l1.119-2.234A.312.312,0,0,0,296.244,189.913Z" transform="translate(-278.659 -181.532)" fill="none" stroke="#000" stroke-width="1"/>
</svg>
