<svg xmlns="http://www.w3.org/2000/svg" width="29.8" height="26.489" viewBox="0 0 29.8 26.489">
  <path id="패스_2" data-name="패스 2" d="M3452.77-1631.848l2.446-10.761a1.241,1.241,0,0,0-1.21-1.517h-20.321l-.474-2.318a1.242,1.242,0,0,0-1.217-.993h-5.3a1.242,1.242,0,0,0-1.241,1.242v.828a1.242,1.242,0,0,0,1.241,1.242h3.616l3.634,17.768a2.9,2.9,0,0,0-1.455,2.513,2.9,2.9,0,0,0,2.9,2.9,2.9,2.9,0,0,0,2.9-2.9,2.887,2.887,0,0,0-.87-2.069h10.846a2.889,2.889,0,0,0-.87,2.069,2.9,2.9,0,0,0,2.9,2.9,2.9,2.9,0,0,0,2.9-2.9,2.9,2.9,0,0,0-1.634-2.608l.285-1.256a1.242,1.242,0,0,0-1.211-1.517h-13.887l-.339-1.656h15.166A1.242,1.242,0,0,0,3452.77-1631.848Z" transform="translate(-3425.447 1647.437)"/>
</svg>
